# xmcd CD database file
#
# Track frame offsets:
#	150
#	20850
#	42192
#	63372
#	78372
#	92532
#	117195
#	132850
#	148695
#	164487
#	179772
#	198470
#	216552
#
# Disc length: 3110 seconds
#
# Revision: 37
# Processed by: cddbd v1.5.2PL0 Copyright (c) Steve Scherf et al.
# Submitted via: CDex 1.90
#
DISCID=c20c240d
DTITLE=Williams, Lucinda (USA-98-Car Wheels On A Gravel Road-alt.cty) - Car Wheels on a Gravel Road
DYEAR=1998
DGENRE=Alt. Country
TTITLE0=Right in Time
TTITLE1=Car Wheels on a Gravel Road
TTITLE2=2 Kool 2 Be 4-Gotten
TTITLE3=Drunken Angel
TTITLE4=Concrete and Barbed Wire
TTITLE5=Lake Charles
TTITLE6=Can't Let Go
TTITLE7=I Lost It
TTITLE8=Metal Firecracker
TTITLE9=Greenville ft. Emmylou Harris
TTITLE10=Still I Long for Your Kiss
TTITLE11=Joy
TTITLE12=Jackson
EXTD=YEAR: 1998
EXTT0=
EXTT1=
EXTT2=
EXTT3=
EXTT4=
EXTT5=
EXTT6=
EXTT7=
EXTT8=
EXTT9=
EXTT10=
EXTT11=
EXTT12=
PLAYORDER=
